<svg id="Capa_3" data-name="Capa 3" xmlns="http://www.w3.org/2000/svg" viewBox="0 0 1172 1172"><defs><style>.cls-1{fill:#c8b7b7;fill-opacity:0.4;}.cls-2{fill:#a00;}.cls-3,.cls-4{fill:#fff;}.cls-4,.cls-6{opacity:0.86;isolation:isolate;}.cls-5,.cls-6{fill:none;stroke-linecap:round;stroke-linejoin:round;}.cls-5{stroke:#000200;stroke-width:8px;}.cls-6{stroke:#000;stroke-width:15px;}</style></defs><title>xolo</title><g id="layer3"><path id="path4164" class="cls-1" d="M146.59,476.27l46.55,2.12,66.65,2.11,39.15,4.24,64.53,8.46,71.94,16.93,21.16,5.29,9.52,33.85,21.16,19,23.28,25.4,7.4,11.63-129.07-18-155.52-20.1L129.66,553.5,51.37,544l54-6.35,28.57-22.21L145.53,490Z"/><path id="path4166" class="cls-1" d="M133.9,442.42l9.52,20.1-2.12,13.75,62.42,1.06L245,474.16l29.62-4.24,26.45-6.34,39.15-6.35,41.26-9.52L422.72,434l31.74-18,19-16.93,22.22-27.51L519,355.66l28.57-13.75,39.14-1.06L629,348.26,656.53,362l23.27,21.16L702,410.68l11.64,30.68L719,466.75v32.8l-10.58,20.1-8.47,28.56-13.75,19-15.87,16.92-40.2,18-18,5.29-11.63,4.23,22.21,13.75,13.76,14.82,11.63,18,1.06,21.16-1.06,22.22-10.58,22.21L616.33,739.7l-32.8,7.41L41.85,812.7,44,826.46l13.75,14.81,16.93,9.52,36-3.17L865,845.5l36-5.29,22.21-12.7,23.28-13.75,21.16-21.16,12.69-30.68,9.52-36-1-31.74-6.35-24.33-12.7-30.68-19-24.34-15.87-14.81-16.93-7.4,34.92-2.12,34.91-3.17,32.8-11.64,39.14-23.28L1085,526l23.28-26.45,21.16-39.15,18-29.62L1158,406.45l-30.68-27.51-27.51-25.39L1056.44,326l-32.8-15.87L991.9,299.59l-38.09-4.23-34.91,8.46-26.45,9.53L860.71,334.5l-15.87,11.64-25.39,27.51L779.25,344l-37-26.45-25.39-14.81-51.84-19-34.91-9.52-24.33-1.06-34.92-1.06-37,9.53-36,10.58-37,18L438.59,327.1l-19,10.58L392,363.07l-22.22,21.16L340.2,405.39,310.57,417,282,425.49l-52.9,11.64-36,3.17Z"/><path id="path4168" d="M236.63,474.55l64.11-13.24,55.17-5.89,58.14-17.65,40.25-19.13,32.8-36.78,29.82-25,23.86-10.3,61.12-2.94,46.22,16.19,25.35,17.65,23.85,32.36,17.89,36.78,3,50-11.92,44.14-20.88,28L663,584.88,603.39,529l10.44-17.66-6-29.42-13.42-19.12-19.38-14.72h-32.8L519.9,459.83,505,481.9l-6,23.54L505,529l-38.77,16.18-13.42-27.95-25.34-11.77-46.22-8.83Z"/><path id="path4170" d="M465.55,543.54,497,579.45l20.95,16.45,34.41,13.47,38.9,3,29.92-7.48,28.43-10.47,17.95-12-49.37-53.86-13.47,3-20.94,20.95-15,4.48H543.35l-16.46-12-22.44-22.44Z"/><path id="path4172" class="cls-2" d="M18.19,486.68l-7.48-26.93,10.47-29.92,25.44-16.46,28.43-7.48,29.92,9,25.43,19.45,12,22.44,3,34.41-10.48,22.44-16.45,19.45L90,543.54,67.57,545l116.7,16.46,404,52.37,28.42,6,23.94,22.45,6,18,4.49,22.44L640.6,714.1l-13.46,18-26.93,16.46L43.63,815.84V794.9l17.95-12L93,775.45l62.84-9L523.9,711.11l22.44-13.47,4.49-25.43-9-15-12-10.48L75.05,578,54.1,570.47l-12-18v-12l-19.45-6-13.47-15L7.72,503.14Z"/><path id="path4177" class="cls-3" d="M75.15,578.26,169,591.67,155.62,615.4l-8.26,25.79-4.12,22.7-3.1,29.91,4.13,21.67-20.63-7.23L104,690.71,88.56,660.79,81.34,635l-4.13-29.92Z"/><path id="path4179" class="cls-3" d="M202,597.86l88.72,12.38-8.25,12.38-10.32,18.57-4.13,35.07-2.06,32v8.25l-14.44-6.19L234,697.93,219.58,677.3l-8.26-28.89-9.28-34Z"/><path id="path4181" class="cls-3" d="M327.9,616.43l1,22.7,7.22,23.72,14.44,24.76,26.83,14.45L395,708.25l7.22,1L396,678.33v-22.7l9.29-19.6,2.06-7.22Z"/><path id="path4183" class="cls-3" d="M445.5,632.94l58.81,10.31L493,655.63l-6.19,14.44-7.22,11.35,1,19.6-12.38-5.15-14.44-17.54-7.23-21.67Z"/><circle id="path5684" class="cls-4" cx="555.45" cy="503.21" r="54.37"/></g><g id="layer1"><path id="path4" class="cls-5" d="M75.75,848.49H650.37a135.22,135.22,0,0,0,23.25-268.42M75.75,848.49a33.8,33.8,0,0,1,0-67.6h0l439.41-67.6a33.8,33.8,0,1,0,0-67.6h0L75.75,578.08m507,33.81h0a67.6,67.6,0,0,1,67.6,67.6h0a67.61,67.61,0,0,1-67.6,67.6m-507-169A33.8,33.8,0,0,1,42,544.28h0M582.77,747.09h0L42,814.69m540.82-202.8h0L42,544.28l540.82,67.61m-507-202.81h0C41.59,407-1.38,436.17,14.49,482m61.26-72.89a67.6,67.6,0,0,1,67.6,67.6h0c136.77,0,254.57,16.25,307.78,39.62M42,544.28h33.8a67.6,67.6,0,0,0,67.6-67.6m-67.6,67.6H42M470.09,401.35c-6.32,7.14-15.16,14-26.23,20.4-56.18,32.63-169.66,54.93-300.51,54.93h0m574.62,0a135.21,135.21,0,0,1-135.2,135.21h0A135.22,135.22,0,0,1,447.56,476.68h0a135.21,135.21,0,0,1,135.21-135.2h0A135.2,135.2,0,0,1,718,476.68M380,375.28q202.8-202.81,439.42,0m-439.42,0c-45.07,45.06-129.23,68.66-241.9,68.66M853.18,578.08a135.21,135.21,0,0,1,0,270.41H650.37M853.18,578.08q202.8,67.6,304.21-169m-338-33.8q135.2-169,338,33.8m-338-33.8C786.79,432,815.51,479,847.89,487.79c50.88,16.93,95.64-29.41,70.25-73.42M75.75,578.08c0,74.68,30.26,135.21,67.6,135.21-9-50.8,8.77-97.67,22.84-120.55m34.05,5.14c5.25,64.5,32.18,116.47,65.62,116.47,0-44.22,8.12-85.79,20.72-101.33m39.48,4.16c0,56,37.67,90.82,75,90.82-9.53-50.75-3.29-58.72,4.74-77.26m37.52,4.37c0,37.33,17.25,63.37,35.92,63.37,0-21.75,9.55-40,24.9-54.11m78.62-370.5h0M42,544.28a33.8,33.8,0,0,1-33.8-33.8c0-18.67,13.63-27.82,32.3-27.82H66.77s27.73-2,18.75-28.89"/><circle id="path4159" class="cls-5" cx="556.02" cy="502.72" r="55.8"/><circle id="path4161" class="cls-6" cx="551.91" cy="506.42" r="17.93"/></g></svg>