<svg id="Capa_2" data-name="Capa 2" xmlns="http://www.w3.org/2000/svg" viewBox="0 0 1172 1172"><defs><style>.cls-1{fill:#f2f2f2;fill-opacity:0.66;}.cls-2{fill:#d7b58b;}.cls-3{fill:#642e17;}.cls-4{fill:#fff;}.cls-5,.cls-6,.cls-7{fill:none;stroke:#000200;stroke-linecap:round;stroke-linejoin:round;}.cls-5,.cls-6{stroke-width:8px;}.cls-6,.cls-7{opacity:0.86;isolation:isolate;}.cls-7{stroke-width:12px;}</style></defs><title>xolotl_rev</title><g id="layer3"><path id="path4164" class="cls-1" d="M1015,474.24l-46.29,2.11-66.28,2.1-38.93,4.21-64.17,8.42-71.54,16.83-21,5.26-9.47,33.67-21,18.93L653,591l-7.36,11.58L774,584.71l154.65-20,103.11-13.67,77.85-9.47L1056,535.26l-28.4-22.09L1016,487.92Z"/><path id="path4166" class="cls-1" d="M1027.58,440.58l-9.47,20,2.1,13.67-62.07,1.06-41-3.16-29.46-4.21-26.3-6.31-38.93-6.31-41-9.47-41-13.68L708.8,414.28l-18.94-16.84-22.09-27.35-23.15-15.78-28.4-13.68-38.93-1.05-42.08,7.36-27.36,13.68-23.14,21L462.62,409,451,439.53l-5.26,25.25v32.61l10.52,20,8.42,28.41,13.68,18.93,15.78,16.84,40,17.88L552,604.7l11.57,4.21-22.09,13.68-13.68,14.73L516.27,655.2l-1,21,1,22.1,10.52,22.09,21,15.78,32.62,7.36,538.66,65.23L1117,822.48l-13.67,14.73-16.84,9.47-35.77-3.16-750.12-2.1-35.77-5.26-22.1-12.63-23.14-13.68-21-21L185.92,758.3l-9.47-35.77L177.5,691l6.32-24.2,12.62-30.51,18.94-24.19,15.78-14.73L248,590l-34.72-2.1-34.71-3.16-32.62-11.57L107,550l-25.25-26.3-23.15-26.3-21-38.93L19.69,429,9.17,404.81l30.51-27.36L67,352.2l43.13-27.35,32.62-15.78,31.56-10.52,37.87-4.21,34.72,8.42,26.3,9.47,31.56,21,15.79,11.57,25.25,27.35,40-29.45,36.83-26.31,25.25-14.72,51.55-18.94,34.72-9.47,24.19-1.05,34.72-1.05,36.82,9.46,35.77,10.52,36.83,17.89,22.09,16.83,18.94,10.52,27.35,25.25,22.1,21,29.45,21.05,29.46,11.57,28.41,8.42,52.6,11.57,35.77,3.15Z"/><path id="path4168" class="cls-2" d="M925.41,471.21l-64-13.39-55-5.95-58-17.86-40.18-19.34-32.73-37.2-29.76-25.29-23.8-10.42-61-3-46.13,16.37L489.47,373l-23.81,32.73-17.85,37.2-3,50.59,11.91,44.63,20.83,28.27,22.32,16.37,59.51-56.54L549,508.4l6-29.75,13.39-19.34,19.34-14.88H620.4l22.32,11.9,14.88,22.32,5.95,23.8-5.95,23.81,38.68,16.36,13.39-28.26L735,502.45l46.12-8.92Z"/><path id="path4170" class="cls-2" d="M697.77,541.14l-31.25,35.71-20.83,16.36L611.47,606.6l-38.68,3L543,602.14l-28.27-10.42-17.85-11.9L546,526.26l13.39,3,20.83,20.83,14.88,4.47H620.4l16.37-11.91,22.32-22.31Z"/><path id="path4172" class="cls-3" d="M1142.64,484.6l7.44-26.78-10.42-29.76-25.29-16.37-28.27-7.44-29.76,8.93-25.29,19.34-11.91,22.32-3,34.22,10.41,22.32L1043,530.72l28.27,10.42,22.32,1.48L977.49,559,575.77,611.07,547.5,617l-23.81,22.32-6,17.85-4.46,22.32,10.41,31.24,13.39,17.86L563.86,745l553.48,67V791.1l-17.85-11.91-31.25-7.44-62.49-8.92-366-55.05-22.31-13.39L613,669.09l8.93-14.88,11.9-10.41,452.31-68.44,20.83-7.44,11.9-17.86v-11.9l19.34-5.95,13.39-14.88,1.49-16.36Z"/><path id="path4177" class="cls-4" d="M1086,575.67,992.64,589,1006,612.6l8.2,25.64,4.11,22.57,3.07,29.75-4.1,21.55,20.52-7.18,19.49-17.44,15.39-29.75,7.18-25.65,4.1-29.75Z"/><path id="path4179" class="cls-4" d="M959.81,595.16l-88.22,12.31,8.2,12.31,10.26,18.46,4.11,34.88,2.05,31.81v8.2L910.57,707,928,694.67l14.36-20.52,8.21-28.72,9.23-33.86Z"/><path id="path4181" class="cls-4" d="M834.65,613.62l-1,22.57-7.18,23.6-14.36,24.62-26.68,14.36L768,704.93l-7.18,1L767,675.18V652.61l-9.24-19.49-2.05-7.19Z"/><path id="path4183" class="cls-4" d="M717.7,630,659.23,640.3l11.28,12.31L676.67,667l7.18,11.28-1,19.5,12.32-5.13,14.36-17.44,7.18-21.55Z"/><circle id="path5684" class="cls-4" cx="608.36" cy="501.03" r="54.07"/></g><g id="layer1"><path id="path4" class="cls-5" d="M1085.4,844.4H514a134.47,134.47,0,0,1-23.12-266.93M1085.4,844.4a33.62,33.62,0,0,0,0-67.23h0l-437-67.23a33.61,33.61,0,1,1,0-67.22h0l437-67.23M581.2,609.1h0A67.23,67.23,0,0,0,514,676.33h0a67.23,67.23,0,0,0,67.22,67.23m504.2-168.07A33.61,33.61,0,0,0,1119,541.88h0M581.2,743.56h0L1119,810.78M581.2,609.1h0L1119,541.88,581.2,609.1m504.2-201.67h0c34-2.11,76.7,26.94,60.91,72.48m-60.91-72.48a67.22,67.22,0,0,0-67.23,67.22h0c-136,0-253.15,16.16-306.06,39.4M1119,541.88H1085.4a67.23,67.23,0,0,1-67.23-67.23m67.23,67.23H1119M693.26,399.74c6.28,7.1,15.07,13.89,26.08,20.29,55.87,32.44,168.72,54.62,298.83,54.62h0m-571.42,0A134.45,134.45,0,0,0,581.2,609.1h0A134.45,134.45,0,0,0,715.66,474.65h0A134.46,134.46,0,0,0,581.2,340.2h0A134.46,134.46,0,0,0,446.75,474.65M782.88,373.81q-201.68-201.67-437,0m437,0c44.82,44.82,128.51,68.28,240.55,68.28M312.3,575.49a134.46,134.46,0,0,0,0,268.91H514M312.3,575.49Q110.63,642.72,9.78,407.43m336.13-33.62Q211.46,205.75,9.78,407.43m336.13-33.62C378.32,430.2,349.75,477,317.56,485.7c-50.6,16.83-95.11-29.25-69.86-73m837.7,162.8c0,74.26-30.1,134.45-67.23,134.45,9-50.51-8.71-97.12-22.71-119.87m-33.86,5.1C956.38,659.32,929.6,711,896.35,711c0-44-8.07-85.31-20.61-100.75m-39.26,4.12c0,55.7-37.46,90.32-74.59,90.32,9.47-50.46,3.27-58.39-4.72-76.82m-37.31,4.34c0,37.12-17.15,63-35.71,63,0-21.62-9.5-39.73-24.77-53.81M581.2,273h0M1119,541.88a33.62,33.62,0,0,0,33.62-33.62c0-18.56-13.56-27.66-32.13-27.66h-26.17s-27.57-2-18.65-28.73"/><circle id="path4159" class="cls-6" cx="607.8" cy="500.55" r="55.49"/><circle id="path4161" class="cls-7" cx="611.89" cy="504.23" r="17.83"/></g></svg>